<svg width="22" height="18" viewBox="0 0 22 18" fill="none" xmlns="http://www.w3.org/2000/svg">
<path d="M1.25 10.5H5.11C5.5278 10.5001 5.93731 10.6165 6.29267 10.8363C6.64803 11.056 6.9352 11.3703 7.122 11.744L7.378 12.256C7.56488 12.6299 7.8522 12.9443 8.20775 13.164C8.5633 13.3837 8.97303 13.5001 9.391 13.5H12.609C13.027 13.5001 13.4367 13.3837 13.7922 13.164C14.1478 12.9443 14.4351 12.6299 14.622 12.256L14.878 11.744C15.0649 11.3701 15.3522 11.0557 15.7078 10.836C16.0633 10.6163 16.473 10.4999 16.891 10.5H20.75M1.25 10.838V15C1.25 15.5967 1.48705 16.169 1.90901 16.591C2.33097 17.0129 2.90326 17.25 3.5 17.25H18.5C19.0967 17.25 19.669 17.0129 20.091 16.591C20.5129 16.169 20.75 15.5967 20.75 15V10.838C20.75 10.614 20.716 10.391 20.65 10.177L18.24 2.338C18.0985 1.87824 17.8133 1.47595 17.4264 1.19015C17.0394 0.904348 16.5711 0.750087 16.09 0.75H5.911C5.42995 0.750087 4.96159 0.904348 4.57464 1.19015C4.1877 1.47595 3.90254 1.87824 3.761 2.338L1.35 10.177C1.28394 10.3911 1.25023 10.6139 1.25 10.838Z" stroke="#F1F5F9" stroke-width="1.5" stroke-linecap="round" stroke-linejoin="round"/>
</svg>
