<svg width="20" height="20" viewBox="0 0 20 20" fill="none" xmlns="http://www.w3.org/2000/svg">
<path d="M8.34302 1.94C8.43302 1.398 8.90302 1 9.45302 1H10.546C11.096 1 11.566 1.398 11.656 1.94L11.805 2.834C11.875 3.258 12.189 3.598 12.585 3.764C12.983 3.928 13.44 3.906 13.79 3.656L14.527 3.129C14.7438 2.97405 15.0085 2.90107 15.274 2.92305C15.5396 2.94502 15.7887 3.06053 15.977 3.249L16.75 4.023C17.14 4.412 17.19 5.025 16.87 5.473L16.343 6.21C16.093 6.56 16.071 7.016 16.236 7.414C16.401 7.811 16.741 8.124 17.166 8.194L18.059 8.344C18.602 8.434 18.999 8.904 18.999 9.453V10.547C18.999 11.097 18.602 11.567 18.059 11.657L17.166 11.806C16.741 11.876 16.401 12.189 16.236 12.586C16.071 12.984 16.093 13.44 16.343 13.79L16.87 14.528C17.19 14.975 17.139 15.588 16.75 15.978L15.976 16.751C15.7877 16.9392 15.5388 17.0546 15.2735 17.0765C15.0082 17.0985 14.7437 17.0257 14.527 16.871L13.789 16.344C13.439 16.094 12.983 16.072 12.586 16.237C12.189 16.402 11.876 16.742 11.805 17.166L11.656 18.06C11.566 18.602 11.096 19 10.546 19H9.45202C8.90202 19 8.43302 18.602 8.34202 18.06L8.19402 17.166C8.12302 16.742 7.81002 16.402 7.41302 16.236C7.01502 16.072 6.55902 16.094 6.20902 16.344L5.47102 16.871C5.02402 17.191 4.41102 17.14 4.02102 16.751L3.24802 15.977C3.05955 15.7887 2.94405 15.5395 2.92207 15.274C2.90009 15.0085 2.97308 14.7438 3.12802 14.527L3.65502 13.79C3.90502 13.44 3.92802 12.984 3.76302 12.586C3.59802 12.189 3.25802 11.876 2.83302 11.806L1.93902 11.656C1.39702 11.566 0.999023 11.096 0.999023 10.547V9.453C0.999023 8.903 1.39702 8.433 1.93902 8.343L2.83302 8.194C3.25702 8.124 3.59802 7.811 3.76302 7.414C3.92802 7.016 3.90602 6.56 3.65602 6.21L3.12902 5.472C2.97408 5.25524 2.90109 4.99053 2.92307 4.72499C2.94505 4.45945 3.06055 4.21034 3.24902 4.022L4.02202 3.249C4.21036 3.06053 4.45948 2.94502 4.72501 2.92305C4.99055 2.90107 5.25527 2.97405 5.47202 3.129L6.20902 3.656C6.55902 3.906 7.01602 3.928 7.41302 3.763C7.81002 3.598 8.12302 3.258 8.19302 2.834L8.34302 1.94Z" stroke="#CBD5E1" stroke-width="1.5" stroke-linecap="round" stroke-linejoin="round"/>
<path d="M13 10C13 10.7956 12.6839 11.5587 12.1213 12.1213C11.5587 12.6839 10.7956 13 10 13C9.20435 13 8.44129 12.6839 7.87868 12.1213C7.31607 11.5587 7 10.7956 7 10C7 9.20435 7.31607 8.44129 7.87868 7.87868C8.44129 7.31607 9.20435 7 10 7C10.7956 7 11.5587 7.31607 12.1213 7.87868C12.6839 8.44129 13 9.20435 13 10Z" stroke="#CBD5E1" stroke-width="1.5" stroke-linecap="round" stroke-linejoin="round"/>
</svg>
