<svg width="61" height="36" viewBox="0 0 61 36" fill="none" xmlns="http://www.w3.org/2000/svg">
<path d="M15.905 0C14.3179 0 12.9006 0.988078 12.351 2.47946L0 36H44.3801C46.1772 36 47.7828 34.8822 48.4035 33.1963L60.6309 0H15.905ZM15.1793 7.44146C15.2504 7.23458 15.5344 6.52749 15.871 6.15696C17.1709 4.66558 22.1021 2.50725 22.3089 2.50725C22.7659 2.50725 23.0778 3.17111 22.9635 3.50459C22.8339 3.87821 20.1259 6.69732 19.8758 8.02505C19.848 8.23192 19.4003 8.68891 18.968 8.85256C18.5635 9.06253 17.8595 9.06253 17.6125 9.06253C16.4515 9.06253 14.9231 8.19178 15.1793 7.44146ZM7.32721 33.4063C6.05506 33.2519 7.22841 31.1059 7.88918 29.5837C8.33999 28.5493 11.3567 17.7391 11.4339 17.4427C11.5111 17.1432 11.7242 15.8278 12.5146 14.5865C13.3082 13.3452 15.3029 12.1348 16.4052 12.4498C17.0907 12.6968 16.8066 13.8578 16.7541 14.0369C16.7016 14.216 12.1317 25.829 10.7206 29.8894C9.30646 33.9497 8.62098 33.5638 7.3303 33.4063H7.32721ZM50.4105 12.3572L49.2063 15.6518H42.9876L36.8646 32.4337H33.184L39.307 15.6518H26.005C25.1219 15.6518 23.4668 16.0779 22.8802 17.6835C22.312 19.2336 23.825 19.7492 27.1598 20.481C30.6304 21.2437 34.9563 22.1916 33.2735 26.8016C32.5047 28.9075 30.1796 32.4337 23.2291 32.4337H13.9442L15.0713 29.1359H24.81C28.5771 29.1359 29.1329 27.6044 29.3428 27.0301C30.0993 24.9582 28.117 24.3932 24.8255 23.6429C21.5463 22.8987 17.4705 21.9693 19.0236 17.7175C20.1753 14.5587 23.4916 12.3541 27.0857 12.3541H40.5112L41.2677 10.2853C42.8301 6.00566 47.6161 3.69603 51.3245 3.69603H55.5485L54.3474 6.99065H50.1233C48.6474 6.99065 45.8684 7.76568 44.8093 10.6682L44.1949 12.3541H50.4167L50.4105 12.3572Z" fill="white"/>
</svg>
