<svg width="30" height="28" viewBox="0 0 30 28" fill="none" xmlns="http://www.w3.org/2000/svg">
<g filter="url(#filter0_d_24_37)">
<path d="M17.751 17.128C18.604 17.3757 19.4878 17.5009 20.376 17.5C21.8044 17.5021 23.2142 17.1764 24.497 16.548C24.5349 15.6517 24.2796 14.7675 23.7698 14.0293C23.2599 13.2912 22.5234 12.7394 21.6717 12.4575C20.82 12.1757 19.8997 12.1791 19.0502 12.4674C18.2006 12.7557 17.4683 13.313 16.964 14.055M17.751 17.128V17.125C17.751 16.012 17.465 14.965 16.964 14.055M17.751 17.128V17.234C15.8265 18.3931 13.6216 19.0038 11.375 19C9.044 19 6.863 18.355 5.001 17.234L5 17.125C4.99923 15.7095 5.46961 14.3339 6.33698 13.2153C7.20435 12.0966 8.41937 11.2984 9.79049 10.9466C11.1616 10.5948 12.6108 10.7093 13.9097 11.2721C15.2085 11.8349 16.2831 12.814 16.964 14.055M14.751 4.375C14.751 5.27011 14.3954 6.12855 13.7625 6.76149C13.1296 7.39442 12.2711 7.75 11.376 7.75C10.4809 7.75 9.62245 7.39442 8.98952 6.76149C8.35658 6.12855 8.001 5.27011 8.001 4.375C8.001 3.47989 8.35658 2.62145 8.98952 1.98851C9.62245 1.35558 10.4809 1 11.376 1C12.2711 1 13.1296 1.35558 13.7625 1.98851C14.3954 2.62145 14.751 3.47989 14.751 4.375ZM23.001 6.625C23.001 7.32119 22.7244 7.98887 22.2322 8.48116C21.7399 8.97344 21.0722 9.25 20.376 9.25C19.6798 9.25 19.0121 8.97344 18.5198 8.48116C18.0276 7.98887 17.751 7.32119 17.751 6.625C17.751 5.92881 18.0276 5.26113 18.5198 4.76884C19.0121 4.27656 19.6798 4 20.376 4C21.0722 4 21.7399 4.27656 22.2322 4.76884C22.7244 5.26113 23.001 5.92881 23.001 6.625Z" stroke="#CBD5E1" stroke-width="1.5" stroke-linecap="round" stroke-linejoin="round" shape-rendering="crispEdges"/>
</g>
<defs>
<filter id="filter0_d_24_37" x="0.25" y="0.25" width="29.0007" height="27.5" filterUnits="userSpaceOnUse" color-interpolation-filters="sRGB">
<feFlood flood-opacity="0" result="BackgroundImageFix"/>
<feColorMatrix in="SourceAlpha" type="matrix" values="0 0 0 0 0 0 0 0 0 0 0 0 0 0 0 0 0 0 127 0" result="hardAlpha"/>
<feOffset dy="4"/>
<feGaussianBlur stdDeviation="2"/>
<feComposite in2="hardAlpha" operator="out"/>
<feColorMatrix type="matrix" values="0 0 0 0 0 0 0 0 0 0 0 0 0 0 0 0 0 0 0.25 0"/>
<feBlend mode="normal" in2="BackgroundImageFix" result="effect1_dropShadow_24_37"/>
<feBlend mode="normal" in="SourceGraphic" in2="effect1_dropShadow_24_37" result="shape"/>
</filter>
</defs>
</svg>
